<mxfile host="app.diagrams.net" modified="2021-03-17T21:52:26.364Z" agent="5.0 (Windows NT 10.0; Win64; x64) AppleWebKit/537.36 (KHTML, like Gecko) Chrome/89.0.4389.82 Safari/537.36" etag="kZfQAcGG7rQA1IvdfjoG" version="14.4.8" type="github">
  <diagram id="RUxofKRy_c-4PL5xseFD" name="Page-1">
    <mxGraphModel dx="1950" dy="1134" grid="1" gridSize="10" guides="1" tooltips="1" connect="1" arrows="1" fold="1" page="1" pageScale="1" pageWidth="3300" pageHeight="2339" math="0" shadow="0">
      <root>
        <mxCell id="0" />
        <mxCell id="1" parent="0" />
        <mxCell id="Jfmd_WEyli8TDmc6K-UR-2" value="" style="rounded=0;whiteSpace=wrap;html=1;" vertex="1" parent="1">
          <mxGeometry x="605" y="85" width="120" height="60" as="geometry" />
        </mxCell>
        <mxCell id="QxhkhDO3bu-SJ8pNpTHq-2" value="Actor" style="shape=umlActor;verticalLabelPosition=bottom;verticalAlign=top;html=1;outlineConnect=0;" parent="1" vertex="1">
          <mxGeometry x="290" y="260" width="60" height="130" as="geometry" />
        </mxCell>
        <mxCell id="QxhkhDO3bu-SJ8pNpTHq-3" value="" style="endArrow=classic;html=1;exitX=0.5;exitY=0;exitDx=0;exitDy=0;" parent="1" source="QxhkhDO3bu-SJ8pNpTHq-84" edge="1">
          <mxGeometry width="50" height="50" relative="1" as="geometry">
            <mxPoint x="470" y="260" as="sourcePoint" />
            <mxPoint x="580" y="260" as="targetPoint" />
            <Array as="points">
              <mxPoint x="435" y="260" />
            </Array>
          </mxGeometry>
        </mxCell>
        <mxCell id="QxhkhDO3bu-SJ8pNpTHq-5" value="получение картинки с вебкамеры (WINAPI?\LINUXAPI)" style="rounded=1;whiteSpace=wrap;html=1;" parent="1" vertex="1">
          <mxGeometry x="580" y="237.5" width="130" height="72.5" as="geometry" />
        </mxCell>
        <mxCell id="QxhkhDO3bu-SJ8pNpTHq-7" value="Компьютер подключенный к вебкамере" style="rounded=0;whiteSpace=wrap;html=1;" parent="1" vertex="1">
          <mxGeometry x="580" y="190" width="240" height="50" as="geometry" />
        </mxCell>
        <mxCell id="QxhkhDO3bu-SJ8pNpTHq-8" value="bitmap" style="rounded=1;whiteSpace=wrap;html=1;" parent="1" vertex="1">
          <mxGeometry x="780" y="253.75" width="110" height="40" as="geometry" />
        </mxCell>
        <mxCell id="QxhkhDO3bu-SJ8pNpTHq-9" value="" style="endArrow=classic;html=1;entryX=0;entryY=0.5;entryDx=0;entryDy=0;exitX=1;exitY=0.5;exitDx=0;exitDy=0;" parent="1" source="QxhkhDO3bu-SJ8pNpTHq-5" target="QxhkhDO3bu-SJ8pNpTHq-8" edge="1">
          <mxGeometry width="50" height="50" relative="1" as="geometry">
            <mxPoint x="580" y="390" as="sourcePoint" />
            <mxPoint x="630" y="340" as="targetPoint" />
            <Array as="points">
              <mxPoint x="720" y="260" />
              <mxPoint x="740" y="270" />
            </Array>
          </mxGeometry>
        </mxCell>
        <mxCell id="QxhkhDO3bu-SJ8pNpTHq-57" style="edgeStyle=orthogonalEdgeStyle;rounded=0;orthogonalLoop=1;jettySize=auto;html=1;exitX=1;exitY=0.5;exitDx=0;exitDy=0;entryX=0;entryY=0.5;entryDx=0;entryDy=0;strokeWidth=1;" parent="1" source="QxhkhDO3bu-SJ8pNpTHq-10" target="QxhkhDO3bu-SJ8pNpTHq-55" edge="1">
          <mxGeometry relative="1" as="geometry" />
        </mxCell>
        <mxCell id="QxhkhDO3bu-SJ8pNpTHq-10" value="распознование кр кода" style="rounded=1;whiteSpace=wrap;html=1;" parent="1" vertex="1">
          <mxGeometry x="940" y="260" width="110" height="40" as="geometry" />
        </mxCell>
        <mxCell id="QxhkhDO3bu-SJ8pNpTHq-11" value="" style="endArrow=classic;html=1;entryX=0;entryY=0.5;entryDx=0;entryDy=0;exitX=1;exitY=0.5;exitDx=0;exitDy=0;" parent="1" source="QxhkhDO3bu-SJ8pNpTHq-8" target="QxhkhDO3bu-SJ8pNpTHq-10" edge="1">
          <mxGeometry width="50" height="50" relative="1" as="geometry">
            <mxPoint x="560" y="500" as="sourcePoint" />
            <mxPoint x="610" y="450" as="targetPoint" />
            <Array as="points">
              <mxPoint x="890" y="280" />
              <mxPoint x="910" y="280" />
            </Array>
          </mxGeometry>
        </mxCell>
        <mxCell id="QxhkhDO3bu-SJ8pNpTHq-16" value="значение временного ключа&lt;br&gt;(TOTP)" style="rounded=1;whiteSpace=wrap;html=1;" parent="1" vertex="1">
          <mxGeometry x="1180" y="245" width="110" height="50" as="geometry" />
        </mxCell>
        <mxCell id="QxhkhDO3bu-SJ8pNpTHq-17" value="ID пользователя" style="rounded=1;whiteSpace=wrap;html=1;" parent="1" vertex="1">
          <mxGeometry x="1180" y="310" width="110" height="40" as="geometry" />
        </mxCell>
        <mxCell id="QxhkhDO3bu-SJ8pNpTHq-18" value="" style="endArrow=classic;html=1;" parent="1" edge="1">
          <mxGeometry width="50" height="50" relative="1" as="geometry">
            <mxPoint x="1290" y="325" as="sourcePoint" />
            <mxPoint x="1350" y="435" as="targetPoint" />
            <Array as="points">
              <mxPoint x="1331" y="325" />
              <mxPoint x="1330.5" y="435" />
            </Array>
          </mxGeometry>
        </mxCell>
        <mxCell id="QxhkhDO3bu-SJ8pNpTHq-22" style="edgeStyle=orthogonalEdgeStyle;rounded=0;orthogonalLoop=1;jettySize=auto;html=1;entryX=0;entryY=0.5;entryDx=0;entryDy=0;" parent="1" target="QxhkhDO3bu-SJ8pNpTHq-21" edge="1">
          <mxGeometry relative="1" as="geometry">
            <mxPoint x="1550" y="430" as="sourcePoint" />
          </mxGeometry>
        </mxCell>
        <mxCell id="QxhkhDO3bu-SJ8pNpTHq-50" style="edgeStyle=orthogonalEdgeStyle;rounded=0;orthogonalLoop=1;jettySize=auto;html=1;exitX=1;exitY=0.5;exitDx=0;exitDy=0;entryX=0;entryY=0.5;entryDx=0;entryDy=0;strokeWidth=1;" parent="1" source="QxhkhDO3bu-SJ8pNpTHq-19" target="QxhkhDO3bu-SJ8pNpTHq-49" edge="1">
          <mxGeometry relative="1" as="geometry" />
        </mxCell>
        <mxCell id="QxhkhDO3bu-SJ8pNpTHq-19" value="запрос на базу данных (получаем PRIVATE KEY по ID)" style="rounded=1;whiteSpace=wrap;html=1;" parent="1" vertex="1">
          <mxGeometry x="1350" y="395" width="130" height="70" as="geometry" />
        </mxCell>
        <mxCell id="QxhkhDO3bu-SJ8pNpTHq-21" value="делаем временный ключ (хэш) на основе текущего времени и PRIVATE KEY" style="rounded=1;whiteSpace=wrap;html=1;" parent="1" vertex="1">
          <mxGeometry x="1610" y="395" width="130" height="70" as="geometry" />
        </mxCell>
        <mxCell id="QxhkhDO3bu-SJ8pNpTHq-25" value="значение временного ключа&lt;br&gt;(TOTP)" style="rounded=1;whiteSpace=wrap;html=1;" parent="1" vertex="1">
          <mxGeometry x="1630" y="245" width="110" height="50" as="geometry" />
        </mxCell>
        <mxCell id="QxhkhDO3bu-SJ8pNpTHq-36" style="edgeStyle=orthogonalEdgeStyle;rounded=0;orthogonalLoop=1;jettySize=auto;html=1;exitX=0.5;exitY=1;exitDx=0;exitDy=0;" parent="1" source="QxhkhDO3bu-SJ8pNpTHq-28" target="QxhkhDO3bu-SJ8pNpTHq-34" edge="1">
          <mxGeometry relative="1" as="geometry" />
        </mxCell>
        <mxCell id="QxhkhDO3bu-SJ8pNpTHq-28" value="временный ключ пользователя&amp;nbsp;&lt;br&gt;=&lt;br&gt;временный ключ полученный системой" style="rhombus;whiteSpace=wrap;html=1;" parent="1" vertex="1">
          <mxGeometry x="1810" y="285" width="320" height="140" as="geometry" />
        </mxCell>
        <mxCell id="QxhkhDO3bu-SJ8pNpTHq-29" value="" style="endArrow=classic;html=1;entryX=0.5;entryY=0;entryDx=0;entryDy=0;" parent="1" target="QxhkhDO3bu-SJ8pNpTHq-28" edge="1">
          <mxGeometry width="50" height="50" relative="1" as="geometry">
            <mxPoint x="1760" y="355" as="sourcePoint" />
            <mxPoint x="1670" y="315" as="targetPoint" />
            <Array as="points">
              <mxPoint x="1760" y="215" />
              <mxPoint x="1970" y="215" />
            </Array>
          </mxGeometry>
        </mxCell>
        <mxCell id="QxhkhDO3bu-SJ8pNpTHq-30" value="" style="endArrow=classic;html=1;" parent="1" edge="1">
          <mxGeometry width="50" height="50" relative="1" as="geometry">
            <mxPoint x="1670" y="395" as="sourcePoint" />
            <mxPoint x="1760" y="355" as="targetPoint" />
            <Array as="points">
              <mxPoint x="1670" y="355" />
            </Array>
          </mxGeometry>
        </mxCell>
        <mxCell id="QxhkhDO3bu-SJ8pNpTHq-31" value="" style="endArrow=classic;html=1;exitX=0.5;exitY=1;exitDx=0;exitDy=0;" parent="1" source="QxhkhDO3bu-SJ8pNpTHq-25" edge="1">
          <mxGeometry width="50" height="50" relative="1" as="geometry">
            <mxPoint x="1580" y="355" as="sourcePoint" />
            <mxPoint x="1760" y="355" as="targetPoint" />
            <Array as="points">
              <mxPoint x="1685" y="355" />
            </Array>
          </mxGeometry>
        </mxCell>
        <mxCell id="QxhkhDO3bu-SJ8pNpTHq-32" value="" style="endArrow=classic;html=1;exitX=1;exitY=0.5;exitDx=0;exitDy=0;" parent="1" source="QxhkhDO3bu-SJ8pNpTHq-28" edge="1">
          <mxGeometry width="50" height="50" relative="1" as="geometry">
            <mxPoint x="2120" y="335" as="sourcePoint" />
            <mxPoint x="2240" y="355" as="targetPoint" />
          </mxGeometry>
        </mxCell>
        <mxCell id="QxhkhDO3bu-SJ8pNpTHq-46" style="edgeStyle=orthogonalEdgeStyle;rounded=0;orthogonalLoop=1;jettySize=auto;html=1;exitX=1;exitY=0.5;exitDx=0;exitDy=0;entryX=1;entryY=0.5;entryDx=0;entryDy=0;strokeWidth=5;fillColor=#f8cecc;strokeColor=#b85450;" parent="1" source="QxhkhDO3bu-SJ8pNpTHq-33" target="QxhkhDO3bu-SJ8pNpTHq-44" edge="1">
          <mxGeometry relative="1" as="geometry">
            <Array as="points">
              <mxPoint x="2310" y="400" />
              <mxPoint x="2310" y="700" />
              <mxPoint x="880" y="700" />
              <mxPoint x="880" y="525" />
            </Array>
          </mxGeometry>
        </mxCell>
        <mxCell id="QxhkhDO3bu-SJ8pNpTHq-33" value="вход не выполнен" style="rounded=1;whiteSpace=wrap;html=1;" parent="1" vertex="1">
          <mxGeometry x="2240" y="325" width="120" height="60" as="geometry" />
        </mxCell>
        <mxCell id="QxhkhDO3bu-SJ8pNpTHq-45" style="edgeStyle=orthogonalEdgeStyle;rounded=0;orthogonalLoop=1;jettySize=auto;html=1;exitX=0.5;exitY=1;exitDx=0;exitDy=0;entryX=1;entryY=0.5;entryDx=0;entryDy=0;strokeWidth=5;fillColor=#d5e8d4;strokeColor=#82b366;startArrow=oval;startFill=1;jumpStyle=arc;" parent="1" source="QxhkhDO3bu-SJ8pNpTHq-34" target="QxhkhDO3bu-SJ8pNpTHq-41" edge="1">
          <mxGeometry relative="1" as="geometry">
            <Array as="points">
              <mxPoint x="1970" y="630" />
              <mxPoint x="1900" y="630" />
              <mxPoint x="1900" y="640" />
              <mxPoint x="1050" y="640" />
              <mxPoint x="1050" y="400" />
            </Array>
          </mxGeometry>
        </mxCell>
        <mxCell id="QxhkhDO3bu-SJ8pNpTHq-34" value="вход выполнен" style="rounded=1;whiteSpace=wrap;html=1;" parent="1" vertex="1">
          <mxGeometry x="1910" y="515" width="120" height="60" as="geometry" />
        </mxCell>
        <mxCell id="QxhkhDO3bu-SJ8pNpTHq-37" value="да" style="text;html=1;strokeColor=none;fillColor=none;align=center;verticalAlign=middle;whiteSpace=wrap;rounded=0;" parent="1" vertex="1">
          <mxGeometry x="1970" y="425" width="40" height="20" as="geometry" />
        </mxCell>
        <mxCell id="QxhkhDO3bu-SJ8pNpTHq-38" value="нет" style="text;html=1;strokeColor=none;fillColor=none;align=center;verticalAlign=middle;whiteSpace=wrap;rounded=0;" parent="1" vertex="1">
          <mxGeometry x="2130" y="335" width="40" height="20" as="geometry" />
        </mxCell>
        <mxCell id="QxhkhDO3bu-SJ8pNpTHq-92" style="edgeStyle=orthogonalEdgeStyle;rounded=0;jumpStyle=arc;orthogonalLoop=1;jettySize=auto;html=1;exitX=0;exitY=0.5;exitDx=0;exitDy=0;entryX=0;entryY=0.5;entryDx=0;entryDy=0;startArrow=oval;startFill=1;strokeWidth=1;" parent="1" source="QxhkhDO3bu-SJ8pNpTHq-41" target="QxhkhDO3bu-SJ8pNpTHq-90" edge="1">
          <mxGeometry relative="1" as="geometry" />
        </mxCell>
        <mxCell id="QxhkhDO3bu-SJ8pNpTHq-41" value="Турникет открылся" style="rounded=1;whiteSpace=wrap;html=1;fillColor=#d5e8d4;strokeColor=#82b366;" parent="1" vertex="1">
          <mxGeometry x="610" y="375" width="210" height="50" as="geometry" />
        </mxCell>
        <mxCell id="QxhkhDO3bu-SJ8pNpTHq-93" style="edgeStyle=orthogonalEdgeStyle;rounded=0;jumpStyle=arc;orthogonalLoop=1;jettySize=auto;html=1;exitX=0;exitY=0.5;exitDx=0;exitDy=0;entryX=0;entryY=0.5;entryDx=0;entryDy=0;startArrow=oval;startFill=1;strokeWidth=1;" parent="1" source="QxhkhDO3bu-SJ8pNpTHq-44" target="QxhkhDO3bu-SJ8pNpTHq-90" edge="1">
          <mxGeometry relative="1" as="geometry" />
        </mxCell>
        <mxCell id="QxhkhDO3bu-SJ8pNpTHq-44" value="Сообщение об ошибке&lt;br&gt;(пользователь не найден , пароль не совпадает, сервер не отвечает и т.д)" style="rounded=1;whiteSpace=wrap;html=1;fillColor=#f8cecc;strokeColor=#b85450;" parent="1" vertex="1">
          <mxGeometry x="610" y="480" width="210" height="90" as="geometry" />
        </mxCell>
        <mxCell id="QxhkhDO3bu-SJ8pNpTHq-65" style="edgeStyle=orthogonalEdgeStyle;rounded=0;orthogonalLoop=1;jettySize=auto;html=1;exitX=0.5;exitY=1;exitDx=0;exitDy=0;strokeWidth=5;fillColor=#f8cecc;strokeColor=#b85450;" parent="1" source="QxhkhDO3bu-SJ8pNpTHq-49" edge="1">
          <mxGeometry relative="1" as="geometry">
            <mxPoint x="1540" y="520" as="targetPoint" />
          </mxGeometry>
        </mxCell>
        <mxCell id="QxhkhDO3bu-SJ8pNpTHq-49" value="ответ?" style="rhombus;whiteSpace=wrap;html=1;" parent="1" vertex="1">
          <mxGeometry x="1500" y="415" width="80" height="30" as="geometry" />
        </mxCell>
        <mxCell id="QxhkhDO3bu-SJ8pNpTHq-66" style="edgeStyle=orthogonalEdgeStyle;rounded=0;orthogonalLoop=1;jettySize=auto;html=1;exitX=1;exitY=0.5;exitDx=0;exitDy=0;strokeWidth=5;fillColor=#f8cecc;strokeColor=#b85450;" parent="1" source="QxhkhDO3bu-SJ8pNpTHq-52" edge="1">
          <mxGeometry relative="1" as="geometry">
            <mxPoint x="1770" y="520" as="targetPoint" />
          </mxGeometry>
        </mxCell>
        <mxCell id="QxhkhDO3bu-SJ8pNpTHq-52" value="ответ?" style="rhombus;whiteSpace=wrap;html=1;" parent="1" vertex="1">
          <mxGeometry x="1630" y="355" width="80" height="30" as="geometry" />
        </mxCell>
        <mxCell id="QxhkhDO3bu-SJ8pNpTHq-64" style="edgeStyle=orthogonalEdgeStyle;rounded=0;orthogonalLoop=1;jettySize=auto;html=1;exitX=0;exitY=0.5;exitDx=0;exitDy=0;strokeWidth=5;fillColor=#f8cecc;strokeColor=#b85450;" parent="1" source="QxhkhDO3bu-SJ8pNpTHq-53" edge="1">
          <mxGeometry relative="1" as="geometry">
            <mxPoint x="1180" y="520" as="targetPoint" />
          </mxGeometry>
        </mxCell>
        <mxCell id="QxhkhDO3bu-SJ8pNpTHq-53" value="ответ?" style="rhombus;whiteSpace=wrap;html=1;" parent="1" vertex="1">
          <mxGeometry x="1290" y="355" width="80" height="30" as="geometry" />
        </mxCell>
        <mxCell id="QxhkhDO3bu-SJ8pNpTHq-58" style="edgeStyle=orthogonalEdgeStyle;rounded=0;orthogonalLoop=1;jettySize=auto;html=1;exitX=1;exitY=0.5;exitDx=0;exitDy=0;strokeWidth=1;" parent="1" source="QxhkhDO3bu-SJ8pNpTHq-55" edge="1">
          <mxGeometry relative="1" as="geometry">
            <mxPoint x="1170" y="315.19047619047615" as="targetPoint" />
          </mxGeometry>
        </mxCell>
        <mxCell id="QxhkhDO3bu-SJ8pNpTHq-63" style="edgeStyle=orthogonalEdgeStyle;rounded=0;orthogonalLoop=1;jettySize=auto;html=1;exitX=0.5;exitY=1;exitDx=0;exitDy=0;strokeWidth=5;fillColor=#f8cecc;strokeColor=#b85450;" parent="1" source="QxhkhDO3bu-SJ8pNpTHq-55" edge="1">
          <mxGeometry relative="1" as="geometry">
            <mxPoint x="1110" y="520" as="targetPoint" />
          </mxGeometry>
        </mxCell>
        <mxCell id="QxhkhDO3bu-SJ8pNpTHq-55" value="распознан?" style="rhombus;whiteSpace=wrap;html=1;" parent="1" vertex="1">
          <mxGeometry x="1070" y="300" width="80" height="30" as="geometry" />
        </mxCell>
        <mxCell id="QxhkhDO3bu-SJ8pNpTHq-67" value="" style="endArrow=classic;html=1;strokeWidth=5;entryX=1;entryY=0.5;entryDx=0;entryDy=0;fillColor=#f8cecc;strokeColor=#b85450;jumpStyle=arc;" parent="1" target="QxhkhDO3bu-SJ8pNpTHq-44" edge="1">
          <mxGeometry width="50" height="50" relative="1" as="geometry">
            <mxPoint x="1800" y="525" as="sourcePoint" />
            <mxPoint x="1290" y="500" as="targetPoint" />
          </mxGeometry>
        </mxCell>
        <mxCell id="QxhkhDO3bu-SJ8pNpTHq-68" value="вебсайт (JS)" style="rounded=1;whiteSpace=wrap;html=1;" parent="1" vertex="1">
          <mxGeometry x="40" y="157.5" width="190" height="40" as="geometry" />
        </mxCell>
        <mxCell id="QxhkhDO3bu-SJ8pNpTHq-69" value="пользователь зашел в систему. Сайт безостановочно генерирует временные кр коды" style="rounded=1;whiteSpace=wrap;html=1;" parent="1" vertex="1">
          <mxGeometry x="40" y="197.5" width="200" height="82.5" as="geometry" />
        </mxCell>
        <mxCell id="QxhkhDO3bu-SJ8pNpTHq-70" value="private key" style="rounded=0;whiteSpace=wrap;html=1;" parent="1" vertex="1">
          <mxGeometry x="40" y="435" width="80" height="30" as="geometry" />
        </mxCell>
        <mxCell id="QxhkhDO3bu-SJ8pNpTHq-71" value="текущее время" style="rounded=0;whiteSpace=wrap;html=1;" parent="1" vertex="1">
          <mxGeometry x="40" y="395" width="80" height="30" as="geometry" />
        </mxCell>
        <mxCell id="QxhkhDO3bu-SJ8pNpTHq-73" value="" style="endArrow=classic;html=1;strokeWidth=1;" parent="1" edge="1">
          <mxGeometry width="50" height="50" relative="1" as="geometry">
            <mxPoint x="140" y="430" as="sourcePoint" />
            <mxPoint x="180" y="430" as="targetPoint" />
          </mxGeometry>
        </mxCell>
        <mxCell id="QxhkhDO3bu-SJ8pNpTHq-74" value="наша структура типо" style="rounded=0;whiteSpace=wrap;html=1;shadow=0;" parent="1" vertex="1">
          <mxGeometry x="180" y="405" width="90" height="45" as="geometry" />
        </mxCell>
        <mxCell id="QxhkhDO3bu-SJ8pNpTHq-75" value="ID" style="rounded=0;whiteSpace=wrap;html=1;" parent="1" vertex="1">
          <mxGeometry x="40" y="480" width="80" height="30" as="geometry" />
        </mxCell>
        <mxCell id="QxhkhDO3bu-SJ8pNpTHq-78" value="" style="endArrow=classic;html=1;strokeWidth=1;exitX=1;exitY=0.5;exitDx=0;exitDy=0;entryX=0;entryY=0.5;entryDx=0;entryDy=0;" parent="1" source="QxhkhDO3bu-SJ8pNpTHq-74" target="QxhkhDO3bu-SJ8pNpTHq-79" edge="1">
          <mxGeometry width="50" height="50" relative="1" as="geometry">
            <mxPoint x="270" y="470" as="sourcePoint" />
            <mxPoint x="320" y="420" as="targetPoint" />
            <Array as="points">
              <mxPoint x="280" y="428" />
            </Array>
          </mxGeometry>
        </mxCell>
        <mxCell id="QxhkhDO3bu-SJ8pNpTHq-87" style="edgeStyle=orthogonalEdgeStyle;rounded=0;orthogonalLoop=1;jettySize=auto;html=1;exitX=1;exitY=0.5;exitDx=0;exitDy=0;entryX=0.5;entryY=1;entryDx=0;entryDy=0;strokeWidth=1;" parent="1" source="QxhkhDO3bu-SJ8pNpTHq-79" target="QxhkhDO3bu-SJ8pNpTHq-86" edge="1">
          <mxGeometry relative="1" as="geometry" />
        </mxCell>
        <mxCell id="QxhkhDO3bu-SJ8pNpTHq-79" value="шифратор" style="rounded=1;whiteSpace=wrap;html=1;shadow=0;fillColor=#f5f5f5;strokeColor=#666666;fontColor=#333333;" parent="1" vertex="1">
          <mxGeometry x="300" y="445" width="90" height="25" as="geometry" />
        </mxCell>
        <mxCell id="QxhkhDO3bu-SJ8pNpTHq-84" value="уникальный кр код&lt;br&gt;(бинарный)" style="rounded=1;whiteSpace=wrap;html=1;shadow=0;fillColor=#dae8fc;strokeColor=#6c8ebf;" parent="1" vertex="1">
          <mxGeometry x="360" y="302.5" width="150" height="65" as="geometry" />
        </mxCell>
        <mxCell id="QxhkhDO3bu-SJ8pNpTHq-88" style="edgeStyle=orthogonalEdgeStyle;rounded=0;orthogonalLoop=1;jettySize=auto;html=1;exitX=0.5;exitY=0;exitDx=0;exitDy=0;entryX=0.5;entryY=1;entryDx=0;entryDy=0;strokeWidth=1;" parent="1" source="QxhkhDO3bu-SJ8pNpTHq-86" target="QxhkhDO3bu-SJ8pNpTHq-84" edge="1">
          <mxGeometry relative="1" as="geometry" />
        </mxCell>
        <mxCell id="QxhkhDO3bu-SJ8pNpTHq-86" value="QR код" style="rounded=1;whiteSpace=wrap;html=1;shadow=0;" parent="1" vertex="1">
          <mxGeometry x="390" y="400" width="90" height="25" as="geometry" />
        </mxCell>
        <mxCell id="QxhkhDO3bu-SJ8pNpTHq-90" value="логи" style="rounded=1;whiteSpace=wrap;html=1;shadow=0;fillColor=#ffe6cc;strokeColor=#d79b00;" parent="1" vertex="1">
          <mxGeometry x="590" y="680" width="160" height="40" as="geometry" />
        </mxCell>
        <mxCell id="QxhkhDO3bu-SJ8pNpTHq-96" value="" style="group" parent="1" vertex="1" connectable="0">
          <mxGeometry x="1330" y="20" width="220" height="190" as="geometry" />
        </mxCell>
        <mxCell id="QxhkhDO3bu-SJ8pNpTHq-95" value="" style="ellipse;shape=cloud;whiteSpace=wrap;html=1;shadow=0;" parent="QxhkhDO3bu-SJ8pNpTHq-96" vertex="1">
          <mxGeometry width="220" height="190" as="geometry" />
        </mxCell>
        <mxCell id="QxhkhDO3bu-SJ8pNpTHq-94" value="" style="shape=cylinder3;whiteSpace=wrap;html=1;boundedLbl=1;backgroundOutline=1;size=15;shadow=0;" parent="QxhkhDO3bu-SJ8pNpTHq-96" vertex="1">
          <mxGeometry x="68.75" y="40" width="82.5" height="110" as="geometry" />
        </mxCell>
        <mxCell id="QxhkhDO3bu-SJ8pNpTHq-97" value="" style="shape=flexArrow;endArrow=classic;startArrow=classic;html=1;strokeWidth=1;entryX=0.55;entryY=0.95;entryDx=0;entryDy=0;entryPerimeter=0;exitX=0.5;exitY=0;exitDx=0;exitDy=0;" parent="1" source="QxhkhDO3bu-SJ8pNpTHq-19" target="QxhkhDO3bu-SJ8pNpTHq-95" edge="1">
          <mxGeometry width="50" height="50" relative="1" as="geometry">
            <mxPoint x="1410" y="310" as="sourcePoint" />
            <mxPoint x="1460" y="260" as="targetPoint" />
            <Array as="points">
              <mxPoint x="1415" y="300" />
              <mxPoint x="1451" y="300" />
            </Array>
          </mxGeometry>
        </mxCell>
        <mxCell id="QxhkhDO3bu-SJ8pNpTHq-26" value="" style="endArrow=classic;html=1;entryX=0;entryY=0.5;entryDx=0;entryDy=0;exitX=1;exitY=0.5;exitDx=0;exitDy=0;jumpStyle=arc;jumpSize=23;" parent="1" target="QxhkhDO3bu-SJ8pNpTHq-25" edge="1">
          <mxGeometry width="50" height="50" relative="1" as="geometry">
            <mxPoint x="1290" y="270" as="sourcePoint" />
            <mxPoint x="1390" y="245" as="targetPoint" />
          </mxGeometry>
        </mxCell>
        <mxCell id="QxhkhDO3bu-SJ8pNpTHq-98" value="Actor" style="shape=umlActor;verticalLabelPosition=bottom;verticalAlign=top;html=1;outlineConnect=0;" parent="1" vertex="1">
          <mxGeometry x="1310" y="825" width="60" height="130" as="geometry" />
        </mxCell>
        <mxCell id="QxhkhDO3bu-SJ8pNpTHq-99" value="" style="ellipse;shape=cloud;whiteSpace=wrap;html=1;shadow=0;" parent="1" vertex="1">
          <mxGeometry x="587.11" y="750" width="115.79" height="100" as="geometry" />
        </mxCell>
        <mxCell id="QxhkhDO3bu-SJ8pNpTHq-100" value="" style="shape=cylinder3;whiteSpace=wrap;html=1;boundedLbl=1;backgroundOutline=1;size=15;shadow=0;" parent="1" vertex="1">
          <mxGeometry x="626.25" y="775" width="37.5" height="50" as="geometry" />
        </mxCell>
        <mxCell id="QxhkhDO3bu-SJ8pNpTHq-101" value="" style="endArrow=classic;html=1;strokeWidth=1;entryX=0;entryY=0;entryDx=0;entryDy=30;entryPerimeter=0;" parent="1" target="QxhkhDO3bu-SJ8pNpTHq-100" edge="1">
          <mxGeometry width="50" height="50" relative="1" as="geometry">
            <mxPoint x="570" y="700" as="sourcePoint" />
            <mxPoint x="590" y="780" as="targetPoint" />
            <Array as="points">
              <mxPoint x="570" y="800" />
            </Array>
          </mxGeometry>
        </mxCell>
        <mxCell id="QxhkhDO3bu-SJ8pNpTHq-102" value="Панель администратора" style="rounded=1;whiteSpace=wrap;html=1;shadow=0;" parent="1" vertex="1">
          <mxGeometry x="1120" y="850" width="120" height="60" as="geometry" />
        </mxCell>
        <mxCell id="QxhkhDO3bu-SJ8pNpTHq-104" value="данные по пользователю" style="rounded=1;whiteSpace=wrap;html=1;shadow=0;" parent="1" vertex="1">
          <mxGeometry x="920" y="820" width="120" height="60" as="geometry" />
        </mxCell>
        <mxCell id="QxhkhDO3bu-SJ8pNpTHq-105" value="общая статистика&lt;br&gt;аналитика" style="rounded=1;whiteSpace=wrap;html=1;shadow=0;" parent="1" vertex="1">
          <mxGeometry x="920" y="890" width="120" height="60" as="geometry" />
        </mxCell>
        <mxCell id="QxhkhDO3bu-SJ8pNpTHq-108" value="" style="shape=flexArrow;endArrow=classic;startArrow=classic;html=1;strokeWidth=1;exitX=0.875;exitY=0.5;exitDx=0;exitDy=0;exitPerimeter=0;" parent="1" source="QxhkhDO3bu-SJ8pNpTHq-99" edge="1">
          <mxGeometry width="50" height="50" relative="1" as="geometry">
            <mxPoint x="750" y="870" as="sourcePoint" />
            <mxPoint x="900" y="890" as="targetPoint" />
            <Array as="points">
              <mxPoint x="820" y="800" />
              <mxPoint x="820" y="890" />
            </Array>
          </mxGeometry>
        </mxCell>
        <mxCell id="QxhkhDO3bu-SJ8pNpTHq-109" value="уведомление о том что чел пришёл&lt;br&gt;(ваш микрочел вошел/вышел из школы в TIME, не волнуйтесь)" style="rounded=1;whiteSpace=wrap;html=1;shadow=0;" parent="1" vertex="1">
          <mxGeometry x="560" y="1210" width="180" height="90" as="geometry" />
        </mxCell>
        <mxCell id="QxhkhDO3bu-SJ8pNpTHq-114" value="" style="ellipse;shape=cloud;whiteSpace=wrap;html=1;shadow=0;" parent="1" vertex="1">
          <mxGeometry x="754.21" y="970" width="115.79" height="100" as="geometry" />
        </mxCell>
        <mxCell id="QxhkhDO3bu-SJ8pNpTHq-113" value="" style="shape=cylinder3;whiteSpace=wrap;html=1;boundedLbl=1;backgroundOutline=1;size=15;shadow=0;" parent="1" vertex="1">
          <mxGeometry x="793.36" y="1000" width="37.5" height="50" as="geometry" />
        </mxCell>
        <mxCell id="QxhkhDO3bu-SJ8pNpTHq-120" style="edgeStyle=orthogonalEdgeStyle;rounded=0;jumpStyle=arc;jumpSize=23;orthogonalLoop=1;jettySize=auto;html=1;exitX=0.5;exitY=1;exitDx=0;exitDy=0;entryX=0.5;entryY=0;entryDx=0;entryDy=0;startArrow=oval;startFill=1;strokeWidth=1;" parent="1" source="QxhkhDO3bu-SJ8pNpTHq-115" target="QxhkhDO3bu-SJ8pNpTHq-119" edge="1">
          <mxGeometry relative="1" as="geometry" />
        </mxCell>
        <mxCell id="QxhkhDO3bu-SJ8pNpTHq-115" value="почта ,телефон? по ID" style="rounded=1;whiteSpace=wrap;html=1;shadow=0;" parent="1" vertex="1">
          <mxGeometry x="590" y="990" width="120" height="60" as="geometry" />
        </mxCell>
        <mxCell id="QxhkhDO3bu-SJ8pNpTHq-122" style="edgeStyle=orthogonalEdgeStyle;rounded=0;jumpStyle=arc;jumpSize=23;orthogonalLoop=1;jettySize=auto;html=1;exitX=0.5;exitY=1;exitDx=0;exitDy=0;entryX=0.5;entryY=0;entryDx=0;entryDy=0;startArrow=oval;startFill=1;strokeWidth=1;" parent="1" source="QxhkhDO3bu-SJ8pNpTHq-116" target="QxhkhDO3bu-SJ8pNpTHq-115" edge="1">
          <mxGeometry relative="1" as="geometry" />
        </mxCell>
        <mxCell id="QxhkhDO3bu-SJ8pNpTHq-116" value="ID пользователя" style="rounded=0;whiteSpace=wrap;html=1;shadow=0;" parent="1" vertex="1">
          <mxGeometry x="610" y="910" width="80" height="40" as="geometry" />
        </mxCell>
        <mxCell id="QxhkhDO3bu-SJ8pNpTHq-118" value="" style="shape=flexArrow;endArrow=classic;startArrow=classic;html=1;strokeWidth=1;entryX=0;entryY=0;entryDx=0;entryDy=30;entryPerimeter=0;" parent="1" source="QxhkhDO3bu-SJ8pNpTHq-115" target="QxhkhDO3bu-SJ8pNpTHq-113" edge="1">
          <mxGeometry width="50" height="50" relative="1" as="geometry">
            <mxPoint x="710" y="1070" as="sourcePoint" />
            <mxPoint x="780.7106781186548" y="1020" as="targetPoint" />
          </mxGeometry>
        </mxCell>
        <mxCell id="QxhkhDO3bu-SJ8pNpTHq-121" style="edgeStyle=orthogonalEdgeStyle;rounded=0;jumpStyle=arc;jumpSize=23;orthogonalLoop=1;jettySize=auto;html=1;exitX=0.5;exitY=1;exitDx=0;exitDy=0;startArrow=oval;startFill=1;strokeWidth=1;" parent="1" source="QxhkhDO3bu-SJ8pNpTHq-119" target="QxhkhDO3bu-SJ8pNpTHq-109" edge="1">
          <mxGeometry relative="1" as="geometry" />
        </mxCell>
        <mxCell id="QxhkhDO3bu-SJ8pNpTHq-119" value="почта?, sms?!!" style="rounded=0;whiteSpace=wrap;html=1;shadow=0;" parent="1" vertex="1">
          <mxGeometry x="575" y="1110" width="150" height="40" as="geometry" />
        </mxCell>
        <mxCell id="QxhkhDO3bu-SJ8pNpTHq-123" value="" style="endArrow=classic;html=1;strokeWidth=1;entryX=0.5;entryY=0;entryDx=0;entryDy=0;" parent="1" target="QxhkhDO3bu-SJ8pNpTHq-116" edge="1">
          <mxGeometry width="50" height="50" relative="1" as="geometry">
            <mxPoint x="570" y="780" as="sourcePoint" />
            <mxPoint x="460" y="820" as="targetPoint" />
            <Array as="points">
              <mxPoint x="570" y="890" />
              <mxPoint x="650" y="890" />
            </Array>
          </mxGeometry>
        </mxCell>
        <mxCell id="Jfmd_WEyli8TDmc6K-UR-1" style="edgeStyle=orthogonalEdgeStyle;rounded=0;orthogonalLoop=1;jettySize=auto;html=1;exitX=0.25;exitY=1;exitDx=0;exitDy=0;" edge="1" parent="1" source="QxhkhDO3bu-SJ8pNpTHq-5" target="QxhkhDO3bu-SJ8pNpTHq-5">
          <mxGeometry relative="1" as="geometry" />
        </mxCell>
        <mxCell id="Jfmd_WEyli8TDmc6K-UR-3" value="WEB&amp;nbsp;" style="rounded=1;whiteSpace=wrap;html=1;" vertex="1" parent="1">
          <mxGeometry x="550" y="1630" width="290" height="150" as="geometry" />
        </mxCell>
        <mxCell id="Jfmd_WEyli8TDmc6K-UR-4" value="консольное приложение 2&lt;br&gt;(генерация временных кодов для&amp;nbsp;&lt;br&gt;пропуска 1 и проверка)" style="rounded=1;whiteSpace=wrap;html=1;" vertex="1" parent="1">
          <mxGeometry x="1280" y="1935" width="290" height="150" as="geometry" />
        </mxCell>
        <mxCell id="Jfmd_WEyli8TDmc6K-UR-5" value="private key" style="rounded=0;whiteSpace=wrap;html=1;" vertex="1" parent="1">
          <mxGeometry x="910" y="1350" width="120" height="60" as="geometry" />
        </mxCell>
        <mxCell id="Jfmd_WEyli8TDmc6K-UR-6" value="время" style="rounded=0;whiteSpace=wrap;html=1;" vertex="1" parent="1">
          <mxGeometry x="1050" y="1350" width="120" height="60" as="geometry" />
        </mxCell>
        <mxCell id="Jfmd_WEyli8TDmc6K-UR-7" value="private key" style="rounded=0;whiteSpace=wrap;html=1;" vertex="1" parent="1">
          <mxGeometry x="1310" y="1780" width="120" height="60" as="geometry" />
        </mxCell>
        <mxCell id="Jfmd_WEyli8TDmc6K-UR-8" value="время" style="rounded=0;whiteSpace=wrap;html=1;" vertex="1" parent="1">
          <mxGeometry x="1440" y="1840" width="120" height="60" as="geometry" />
        </mxCell>
        <mxCell id="Jfmd_WEyli8TDmc6K-UR-9" value="вр ключ&lt;br&gt;4АBC23" style="rounded=0;whiteSpace=wrap;html=1;" vertex="1" parent="1">
          <mxGeometry x="900" y="1980" width="120" height="60" as="geometry" />
        </mxCell>
        <mxCell id="Jfmd_WEyli8TDmc6K-UR-10" value="вр ключ&lt;br&gt;4АBC23" style="rounded=0;whiteSpace=wrap;html=1;" vertex="1" parent="1">
          <mxGeometry x="1175" y="2140" width="120" height="60" as="geometry" />
        </mxCell>
        <mxCell id="Jfmd_WEyli8TDmc6K-UR-11" value="" style="endArrow=classic;html=1;exitX=1;exitY=0.5;exitDx=0;exitDy=0;entryX=0;entryY=0.5;entryDx=0;entryDy=0;" edge="1" parent="1" source="Jfmd_WEyli8TDmc6K-UR-9" target="Jfmd_WEyli8TDmc6K-UR-4">
          <mxGeometry width="50" height="50" relative="1" as="geometry">
            <mxPoint x="1160" y="1970" as="sourcePoint" />
            <mxPoint x="1210" y="1920" as="targetPoint" />
          </mxGeometry>
        </mxCell>
        <mxCell id="Jfmd_WEyli8TDmc6K-UR-12" value="id пропуска" style="rounded=0;whiteSpace=wrap;html=1;" vertex="1" parent="1">
          <mxGeometry x="940" y="1910" width="120" height="60" as="geometry" />
        </mxCell>
        <mxCell id="Jfmd_WEyli8TDmc6K-UR-13" value="id пропуска" style="rounded=0;whiteSpace=wrap;html=1;" vertex="1" parent="1">
          <mxGeometry x="1310" y="1840" width="120" height="60" as="geometry" />
        </mxCell>
        <mxCell id="Jfmd_WEyli8TDmc6K-UR-16" value="локальная&lt;br&gt;база данных" style="shape=cylinder3;whiteSpace=wrap;html=1;boundedLbl=1;backgroundOutline=1;size=15;" vertex="1" parent="1">
          <mxGeometry x="1450" y="1680" width="60" height="80" as="geometry" />
        </mxCell>
        <mxCell id="Jfmd_WEyli8TDmc6K-UR-18" value="все алгоритмы - локально выполняются" style="rounded=0;whiteSpace=wrap;html=1;" vertex="1" parent="1">
          <mxGeometry x="1365" y="1910" width="120" height="60" as="geometry" />
        </mxCell>
        <mxCell id="Jfmd_WEyli8TDmc6K-UR-19" value="консольное приложение 1&lt;br&gt;(генерация временных кодов для&amp;nbsp;&lt;br&gt;пропуска 1)" style="rounded=1;whiteSpace=wrap;html=1;" vertex="1" parent="1">
          <mxGeometry x="1700" y="1810" width="290" height="150" as="geometry" />
        </mxCell>
        <mxCell id="Jfmd_WEyli8TDmc6K-UR-20" value="консольное приложение 2&lt;br&gt;(принимает данные -&amp;gt; посылает запрос в облако" style="rounded=1;whiteSpace=wrap;html=1;" vertex="1" parent="1">
          <mxGeometry x="2230" y="1965" width="290" height="150" as="geometry" />
        </mxCell>
        <mxCell id="Jfmd_WEyli8TDmc6K-UR-21" value="private key" style="rounded=0;whiteSpace=wrap;html=1;" vertex="1" parent="1">
          <mxGeometry x="2470" y="1660" width="120" height="60" as="geometry" />
        </mxCell>
        <mxCell id="Jfmd_WEyli8TDmc6K-UR-22" value="время" style="rounded=0;whiteSpace=wrap;html=1;" vertex="1" parent="1">
          <mxGeometry x="2600" y="1720" width="120" height="60" as="geometry" />
        </mxCell>
        <mxCell id="Jfmd_WEyli8TDmc6K-UR-23" value="вр ключ&lt;br&gt;4АBC23" style="rounded=0;whiteSpace=wrap;html=1;" vertex="1" parent="1">
          <mxGeometry x="1990" y="2010" width="120" height="60" as="geometry" />
        </mxCell>
        <mxCell id="Jfmd_WEyli8TDmc6K-UR-24" value="вр ключ&lt;br&gt;4АBC23" style="rounded=0;whiteSpace=wrap;html=1;" vertex="1" parent="1">
          <mxGeometry x="2265" y="2170" width="120" height="60" as="geometry" />
        </mxCell>
        <mxCell id="Jfmd_WEyli8TDmc6K-UR-25" value="" style="endArrow=classic;html=1;exitX=1;exitY=0.5;exitDx=0;exitDy=0;entryX=0;entryY=0.5;entryDx=0;entryDy=0;" edge="1" parent="1" source="Jfmd_WEyli8TDmc6K-UR-23" target="Jfmd_WEyli8TDmc6K-UR-20">
          <mxGeometry width="50" height="50" relative="1" as="geometry">
            <mxPoint x="2250" y="2000" as="sourcePoint" />
            <mxPoint x="2300" y="1950" as="targetPoint" />
          </mxGeometry>
        </mxCell>
        <mxCell id="Jfmd_WEyli8TDmc6K-UR-26" value="id пропуска" style="rounded=0;whiteSpace=wrap;html=1;" vertex="1" parent="1">
          <mxGeometry x="2030" y="1940" width="120" height="60" as="geometry" />
        </mxCell>
        <mxCell id="Jfmd_WEyli8TDmc6K-UR-27" value="id пропуска" style="rounded=0;whiteSpace=wrap;html=1;" vertex="1" parent="1">
          <mxGeometry x="2450" y="1750" width="120" height="60" as="geometry" />
        </mxCell>
        <mxCell id="Jfmd_WEyli8TDmc6K-UR-28" value="локальная&lt;br&gt;база данных" style="shape=cylinder3;whiteSpace=wrap;html=1;boundedLbl=1;backgroundOutline=1;size=15;" vertex="1" parent="1">
          <mxGeometry x="2550" y="1510" width="60" height="80" as="geometry" />
        </mxCell>
        <mxCell id="Jfmd_WEyli8TDmc6K-UR-29" value="все алгоритмы - локально выполняются" style="rounded=0;whiteSpace=wrap;html=1;" vertex="1" parent="1">
          <mxGeometry x="2750" y="1720" width="120" height="60" as="geometry" />
        </mxCell>
        <mxCell id="Jfmd_WEyli8TDmc6K-UR-30" value="облако&lt;br&gt;(получает запрос сравнивает временные ключи и послыает ответ)" style="rounded=1;whiteSpace=wrap;html=1;" vertex="1" parent="1">
          <mxGeometry x="2600" y="1570" width="290" height="150" as="geometry" />
        </mxCell>
        <mxCell id="Jfmd_WEyli8TDmc6K-UR-32" value="консольное приложение 1&lt;br&gt;(генерация временных кодов для&amp;nbsp;&lt;br&gt;пропуска 1)" style="rounded=1;whiteSpace=wrap;html=1;" vertex="1" parent="1">
          <mxGeometry x="3010" y="1825" width="290" height="150" as="geometry" />
        </mxCell>
        <mxCell id="Jfmd_WEyli8TDmc6K-UR-33" value="консольное приложение 2&lt;br&gt;(считывает QR код ,расшифровывает данные -&amp;gt; посылает запрос в облако" style="rounded=1;whiteSpace=wrap;html=1;" vertex="1" parent="1">
          <mxGeometry x="3540" y="1980" width="290" height="150" as="geometry" />
        </mxCell>
        <mxCell id="Jfmd_WEyli8TDmc6K-UR-34" value="private key" style="rounded=0;whiteSpace=wrap;html=1;" vertex="1" parent="1">
          <mxGeometry x="3780" y="1675" width="120" height="60" as="geometry" />
        </mxCell>
        <mxCell id="Jfmd_WEyli8TDmc6K-UR-35" value="время" style="rounded=0;whiteSpace=wrap;html=1;" vertex="1" parent="1">
          <mxGeometry x="3910" y="1735" width="120" height="60" as="geometry" />
        </mxCell>
        <mxCell id="Jfmd_WEyli8TDmc6K-UR-36" value="QR код" style="rounded=0;whiteSpace=wrap;html=1;" vertex="1" parent="1">
          <mxGeometry x="3300" y="2025" width="120" height="60" as="geometry" />
        </mxCell>
        <mxCell id="Jfmd_WEyli8TDmc6K-UR-37" value="вр ключ&lt;br&gt;4АBC23" style="rounded=0;whiteSpace=wrap;html=1;" vertex="1" parent="1">
          <mxGeometry x="3575" y="2185" width="120" height="60" as="geometry" />
        </mxCell>
        <mxCell id="Jfmd_WEyli8TDmc6K-UR-38" value="" style="endArrow=classic;html=1;exitX=1;exitY=0.5;exitDx=0;exitDy=0;entryX=0;entryY=0.5;entryDx=0;entryDy=0;" edge="1" parent="1" source="Jfmd_WEyli8TDmc6K-UR-36" target="Jfmd_WEyli8TDmc6K-UR-33">
          <mxGeometry width="50" height="50" relative="1" as="geometry">
            <mxPoint x="3560" y="2015" as="sourcePoint" />
            <mxPoint x="3610" y="1965" as="targetPoint" />
          </mxGeometry>
        </mxCell>
        <mxCell id="Jfmd_WEyli8TDmc6K-UR-39" value="id пропуска" style="rounded=0;whiteSpace=wrap;html=1;" vertex="1" parent="1">
          <mxGeometry x="3340" y="1955" width="120" height="60" as="geometry" />
        </mxCell>
        <mxCell id="Jfmd_WEyli8TDmc6K-UR-40" value="id пропуска" style="rounded=0;whiteSpace=wrap;html=1;" vertex="1" parent="1">
          <mxGeometry x="3760" y="1765" width="120" height="60" as="geometry" />
        </mxCell>
        <mxCell id="Jfmd_WEyli8TDmc6K-UR-41" value="локальная&lt;br&gt;база данных" style="shape=cylinder3;whiteSpace=wrap;html=1;boundedLbl=1;backgroundOutline=1;size=15;" vertex="1" parent="1">
          <mxGeometry x="3860" y="1525" width="60" height="80" as="geometry" />
        </mxCell>
        <mxCell id="Jfmd_WEyli8TDmc6K-UR-42" value="все алгоритмы - локально выполняются" style="rounded=0;whiteSpace=wrap;html=1;" vertex="1" parent="1">
          <mxGeometry x="4060" y="1735" width="120" height="60" as="geometry" />
        </mxCell>
        <mxCell id="Jfmd_WEyli8TDmc6K-UR-43" value="облако&lt;br&gt;(получает запрос сравнивает временные ключи и послыает ответ)" style="rounded=1;whiteSpace=wrap;html=1;" vertex="1" parent="1">
          <mxGeometry x="3910" y="1585" width="290" height="150" as="geometry" />
        </mxCell>
        <mxCell id="Jfmd_WEyli8TDmc6K-UR-44" value="консольное приложение 1&lt;br&gt;(генерация временных кодов для&amp;nbsp;&lt;br&gt;пропуска 1)" style="rounded=1;whiteSpace=wrap;html=1;" vertex="1" parent="1">
          <mxGeometry x="4330" y="1860" width="290" height="150" as="geometry" />
        </mxCell>
        <mxCell id="Jfmd_WEyli8TDmc6K-UR-45" value="консольное приложение 2&lt;br&gt;(считывает QR код ,расшифровывает данные -&amp;gt; посылает запрос в облако" style="rounded=1;whiteSpace=wrap;html=1;" vertex="1" parent="1">
          <mxGeometry x="4860" y="2015" width="290" height="150" as="geometry" />
        </mxCell>
        <mxCell id="Jfmd_WEyli8TDmc6K-UR-46" value="private key" style="rounded=0;whiteSpace=wrap;html=1;" vertex="1" parent="1">
          <mxGeometry x="5100" y="1710" width="120" height="60" as="geometry" />
        </mxCell>
        <mxCell id="Jfmd_WEyli8TDmc6K-UR-47" value="время" style="rounded=0;whiteSpace=wrap;html=1;" vertex="1" parent="1">
          <mxGeometry x="5230" y="1770" width="120" height="60" as="geometry" />
        </mxCell>
        <mxCell id="Jfmd_WEyli8TDmc6K-UR-48" value="QR код" style="rounded=0;whiteSpace=wrap;html=1;" vertex="1" parent="1">
          <mxGeometry x="4620" y="2060" width="120" height="60" as="geometry" />
        </mxCell>
        <mxCell id="Jfmd_WEyli8TDmc6K-UR-49" value="вр ключ&lt;br&gt;4АBC23" style="rounded=0;whiteSpace=wrap;html=1;" vertex="1" parent="1">
          <mxGeometry x="4895" y="2220" width="120" height="60" as="geometry" />
        </mxCell>
        <mxCell id="Jfmd_WEyli8TDmc6K-UR-50" value="" style="endArrow=classic;html=1;exitX=1;exitY=0.5;exitDx=0;exitDy=0;entryX=0;entryY=0.5;entryDx=0;entryDy=0;" edge="1" parent="1" source="Jfmd_WEyli8TDmc6K-UR-48" target="Jfmd_WEyli8TDmc6K-UR-45">
          <mxGeometry width="50" height="50" relative="1" as="geometry">
            <mxPoint x="4880" y="2050" as="sourcePoint" />
            <mxPoint x="4930" y="2000" as="targetPoint" />
          </mxGeometry>
        </mxCell>
        <mxCell id="Jfmd_WEyli8TDmc6K-UR-51" value="id пропуска" style="rounded=0;whiteSpace=wrap;html=1;" vertex="1" parent="1">
          <mxGeometry x="4660" y="1990" width="120" height="60" as="geometry" />
        </mxCell>
        <mxCell id="Jfmd_WEyli8TDmc6K-UR-52" value="id пропуска" style="rounded=0;whiteSpace=wrap;html=1;" vertex="1" parent="1">
          <mxGeometry x="5080" y="1800" width="120" height="60" as="geometry" />
        </mxCell>
        <mxCell id="Jfmd_WEyli8TDmc6K-UR-53" value="локальная&lt;br&gt;база данных" style="shape=cylinder3;whiteSpace=wrap;html=1;boundedLbl=1;backgroundOutline=1;size=15;" vertex="1" parent="1">
          <mxGeometry x="5180" y="1560" width="60" height="80" as="geometry" />
        </mxCell>
        <mxCell id="Jfmd_WEyli8TDmc6K-UR-54" value="все алгоритмы - локально выполняются" style="rounded=0;whiteSpace=wrap;html=1;" vertex="1" parent="1">
          <mxGeometry x="5380" y="1770" width="120" height="60" as="geometry" />
        </mxCell>
        <mxCell id="Jfmd_WEyli8TDmc6K-UR-55" value="облако&lt;br&gt;(получает запрос сравнивает временные ключи и послыает ответ)" style="rounded=1;whiteSpace=wrap;html=1;" vertex="1" parent="1">
          <mxGeometry x="5230" y="1620" width="290" height="150" as="geometry" />
        </mxCell>
        <mxCell id="Jfmd_WEyli8TDmc6K-UR-56" value="консольное приложение 1&lt;br&gt;(генерация временных кодов для&amp;nbsp;&lt;br&gt;пропуска 1)" style="rounded=1;whiteSpace=wrap;html=1;" vertex="1" parent="1">
          <mxGeometry x="650" y="1860" width="290" height="150" as="geometry" />
        </mxCell>
      </root>
    </mxGraphModel>
  </diagram>
</mxfile>
